<?xml version="1.0" standalone="no"?>
<!DOCTYPE svg PUBLIC "-//W3C//DTD SVG 20010904//EN"
 "http://www.w3.org/TR/2001/REC-SVG-20010904/DTD/svg10.dtd">
<svg version="1.0" xmlns="http://www.w3.org/2000/svg"
 width="128.000000pt" height="128.000000pt" viewBox="0 0 128.000000 128.000000"
 preserveAspectRatio="xMidYMid meet">

<g transform="translate(0.000000,128.000000) scale(0.100000,-0.100000)"
fill="#000000" stroke="none">
<path d="M1007 1273 c-4 -3 -7 -44 -7 -90 l0 -83 -54 35 c-90 61 -184 88 -306
89 -131 1 -220 -25 -327 -96 -85 -58 -140 -118 -188 -209 -46 -88 -65 -166
-65 -269 0 -128 21 -181 61 -159 16 8 17 21 12 112 -7 119 5 185 47 271 60
122 169 216 299 257 138 44 322 20 434 -58 l41 -28 -84 -5 c-63 -4 -85 -9 -93
-22 -8 -12 -7 -21 3 -33 12 -15 31 -17 140 -13 69 2 131 7 138 11 15 10 17
249 2 278 -10 19 -40 26 -53 12z"/>
<path d="M1158 789 c-14 -7 -15 -24 -11 -112 4 -61 1 -124 -6 -157 -26 -122
-110 -241 -220 -314 -155 -104 -393 -106 -546 -4 l-50 33 30 6 c17 4 49 7 72
8 23 0 48 4 57 7 21 8 21 53 0 61 -28 11 -255 -13 -270 -29 -12 -11 -12 -33
-4 -123 6 -61 13 -120 15 -131 5 -25 27 -36 51 -27 14 5 16 18 11 89 l-6 84
53 -36 c92 -60 184 -87 306 -87 121 0 175 13 283 70 133 70 243 209 282 359
15 59 20 189 9 257 -7 41 -30 61 -56 46z"/>
</g>
</svg>
