<?xml version="1.0" standalone="no"?>
<!DOCTYPE svg PUBLIC "-//W3C//DTD SVG 20010904//EN"
 "http://www.w3.org/TR/2001/REC-SVG-20010904/DTD/svg10.dtd">
<svg version="1.0" xmlns="http://www.w3.org/2000/svg"
 width="64.000000pt" height="64.000000pt" viewBox="0 0 64.000000 64.000000"
 preserveAspectRatio="xMidYMid meet">

<g transform="translate(0.000000,64.000000) scale(0.100000,-0.100000)"
fill="#000000" stroke="none">
<path d="M192 490 c-64 -30 -192 -143 -192 -170 0 -27 128 -140 192 -170 130
-62 257 -31 383 93 36 34 65 69 65 77 0 8 -29 43 -65 77 -86 84 -166 123 -255
123 -51 0 -78 -6 -128 -30z m242 -39 c26 -13 73 -48 105 -77 l56 -54 -56 -54
c-79 -74 -137 -101 -219 -101 -81 0 -134 25 -216 99 l-59 54 30 32 c43 45 117
98 162 115 53 20 138 14 197 -14z"/>
<path d="M271 433 c-102 -53 -101 -175 2 -226 65 -33 145 7 168 83 10 32 9 44
-7 76 -35 71 -103 98 -163 67z m106 -55 c51 -48 15 -138 -56 -138 -47 0 -81
32 -81 79 0 72 84 109 137 59z"/>
</g>
</svg>
